<svg xmlns="http://www.w3.org/2000/svg" width="146" height="40" fill="none" viewBox="0 0 146 40"><path fill="#000000" fill-rule="evenodd" d="M19.615 7.946v28.928l-.616.517-.615-.517V7.946l.615-.516zM14.136 11.51v21.8l-1.23-1.033V12.543zM8.654 16.112v12.597l-1.231-1.033V17.145zM30.357 16.96V27.86l-1.231 1.033V15.927zM25.094 12.543v19.735l-1.23 1.032V11.511z" clip-rule="evenodd"></path><path fill="#000000" fill-rule="evenodd" d="M19 2.609 2.61 16.36l.958.804 15.431-12.95 15.432 12.95.958-.804z" clip-rule="evenodd"></path><path fill="#000000" d="M38 23.792v-9.373h2.053v7.448h6.025v1.925zM51.05 22.178l-.858 1.614h-2.27L52.995 14l5.24 9.792H55.94l-.894-1.614zm1.967-4.328-1.328 2.786 2.68-.012zM68.25 23.792l-3.428-3.886-1.968 1.818v2.068H60.8V14.42h2.053v4.722l5.082-4.734h2.898l-4.551 4.209 4.563 5.177zM82.592 21.891v1.902h-8.946v-9.374h8.946v1.901h-6.894v1.877h4.648v1.806h-4.648v1.888zM90.255 23.96q-1.467 0-2.862-.574c-.917-.394-1.497-.909-1.75-1.542l1.605-.968c.543.717 1.787 1.171 3.054 1.171.858 0 1.546-.12 2.053-.346.35-.18.531-.407.52-.706 0-.299-.17-.514-.496-.657-.302-.12-.965-.24-2.003-.371-1.401-.144-2.343-.311-2.813-.502-1.123-.466-1.667-1.208-1.606-2.235 0-1.077.543-1.878 1.642-2.415.785-.371 1.774-.55 2.982-.55 2.137 0 3.562.705 4.081 2.056l-1.763.92c-.35-.8-1.183-1.196-2.475-1.196a5 5 0 0 0-1.653.275c-.52.18-.785.442-.797.777-.013.622.446.837 1.545 1.016.241.036.556.072.93.108l.796.084c.93.107 1.606.25 2.029.418 1.122.454 1.665 1.208 1.605 2.272v.12a2.35 2.35 0 0 1-.712 1.626c-.447.442-1.014.753-1.678.945-.665.179-1.4.274-2.234.274M100.226 20.062v3.73h-2.053v-9.373h2.053v3.718h5.444v-3.718h2.04v9.374h-2.04v-3.73zM116.063 23.84c-1.437 0-2.68-.454-3.706-1.375-1.026-.92-1.534-2.034-1.534-3.36s.52-2.44 1.546-3.36q1.538-1.378 3.694-1.376c1.437 0 2.668.466 3.694 1.387s1.545 2.033 1.545 3.349c0 1.315-.519 2.439-1.545 3.36s-2.257 1.375-3.694 1.375m3.188-4.734c0-.778-.314-1.435-.93-1.973-.616-.537-1.376-.813-2.257-.813s-1.642.275-2.257.813-.93 1.196-.93 1.973.314 1.423.93 1.973c.627.537 1.376.813 2.257.813s1.63-.275 2.246-.813q.94-.826.941-1.973M131.503 23.792l-2.885-3.252h-2.149v3.252h-2.053v-9.373h6.145c.856 0 1.605.299 2.221.897s.929 1.315.929 2.164a2.87 2.87 0 0 1-.748 1.96 3.03 3.03 0 0 1-1.883.993l2.982 3.36zm-5.035-5.129h3.875c.809 0 1.316-.537 1.316-1.219s-.506-1.22-1.316-1.22h-3.875zM146 21.891v1.902h-8.946v-9.374H146v1.901h-6.894v1.877h4.648v1.806h-4.648v1.888zM46.516 29.89H44.89v-3.23h1.627q.673-.001 1.153.473.481.474.483 1.141 0 .667-.483 1.142-.479.475-1.153.474m-1.056-2.678v2.126h1.058q.442.002.752-.312.317-.313.316-.75.002-.44-.316-.75a1.02 1.02 0 0 0-.752-.314zM57.007 29.342v.548h-3.054v-3.23h3.054v.547h-2.484v.8H56.2v.535h-1.677v.8zM62.593 26.65h.624l1.103 2.177 1.098-2.176h.625l-1.723 3.346zM74.77 29.342v.548h-3.054v-3.23h3.054v.547h-2.484v.8h1.677v.535h-1.677v.8zM80.695 29.89v-3.23h.57v2.678h2.181v.552zM90.842 29.894q-.743 0-1.273-.47a1.48 1.48 0 0 1-.529-1.15c0-.454.174-.841.528-1.15q.531-.469 1.273-.469.74 0 1.27.47.529.47.528 1.15t-.532 1.15-1.266.47m0-.552q.507.001.869-.313.362-.315.362-.753 0-.44-.362-.754a1.28 1.28 0 0 0-.87-.313c-.337 0-.632.103-.873.313q-.357.315-.358.754.001.438.358.753.36.314.873.313M98.482 29.89v-3.23h2.214q.431 0 .737.304a.98.98 0 0 1 .307.725 1 1 0 0 1-.307.73q-.306.3-.737.3h-1.643v1.17zm.57-1.715h1.615a.5.5 0 0 0 .358-.14q.15-.142.15-.346a.495.495 0 0 0-.507-.49h-1.615zM108.021 29.886l-.562.004.436-3.342 1.777 2.139 1.781-2.139.433 3.342h-.562l-.262-2.027-1.39 1.656-1.386-1.656zM120.867 29.342v.548h-3.055v-3.23h3.055v.547h-2.485v.8h1.677v.535h-1.677v.8zM127.363 29.89h-.57v-3.322l2.697 2.254v-2.164h.566V30l-2.692-2.254v2.144zM137.161 29.89v-2.678h-1.345v-.553h3.259v.553h-1.344v2.678z"></path></svg>
